<svg xmlns="http://www.w3.org/2000/svg" viewBox="0 0 72.45 52.56"><defs><style>.cls-1{fill:#fff;}.cls-2{fill:#6b6b6b;}</style></defs><title>Asset 14</title><g id="Layer_2" data-name="Layer 2"><g id="_2" data-name="2"><path class="cls-1" d="M29.28,50.4c-3.23-2-2.35-7.59-5.49-9.77a9.36,9.36,0,0,0-3.24-1.15A36.74,36.74,0,0,1,2.42,29c.42-1.12,2.16-.5,3.23-1a2.17,2.17,0,0,0,1-2.28,10.8,10.8,0,0,0-.91-2.49,10,10,0,0,1-.59-5.44,5.26,5.26,0,0,1,2.45-3.91,4.71,4.71,0,0,1,2.35-.45c3.34.13,6.17,2.49,8.36,5s4.13,5.39,7,7.16a62.17,62.17,0,0,1,1.15-18.8C26.77,5,27.48,3,29.21,2.42a3.6,3.6,0,0,1,3.24.85c2,1.65,2.43,4.44,2.76,7,.72,5.6,1.45,11.3.43,16.85,3.41-2,4.9-6.1,7.35-9.23s6.18-5.5,9.73-7.66a2.79,2.79,0,0,1,2-.59,1.88,1.88,0,0,1,1.2,2.07A5.54,5.54,0,0,1,54.85,14l-9.6,14.29c5.89-2.68,12.75-2.07,19.06-.65A12.26,12.26,0,0,1,69,29.53a4.6,4.6,0,0,1,2,4.41c-.42,2-2.51,3.22-4.44,4a35.92,35.92,0,0,1-11.07,2.41c.78,1,.14,2.5-1,3.08a6.25,6.25,0,0,1-3.62.37L35.17,42.26a1.29,1.29,0,0,0-.44,0c-.42.13-.55.65-.6,1.09a18,18,0,0,1-.71,4.39,4,4,0,0,1-3.14,2.81Z"/><path class="cls-2" d="M7.36,35.2c3.87,2.25,7.73,4.55,12.12,5.6a34,34,0,0,0,3.59.7,11.14,11.14,0,0,0,.21,1.81A15.38,15.38,0,0,0,24.34,47a11,11,0,0,0,5.41,5.57c1.18.13,3-.29,5-3a14,14,0,0,0,1-3.17c.09-.53.18-1.07.23-1.61a8.33,8.33,0,0,1,.13-1.42.13.13,0,0,0,0-.06l1.57.28c2.19.41,4.38.78,6.57,1.16q2.69.48,5.38.79a12.74,12.74,0,0,0,3.75,0,3.51,3.51,0,0,0,3.16-3.8c.41,0,.82,0,1.24,0a26.46,26.46,0,0,0,4-.32,23.12,23.12,0,0,0,6.48-2.26c1.69-.76,3.64-1.9,4.06-3.86a7.71,7.71,0,0,0-1.14-5.86c-2.34-3.4-6.54-4.09-10.37-4.57a24.9,24.9,0,0,0-11.9,1.17l.25-.24a27.14,27.14,0,0,0,4.71-5.71,25,25,0,0,0,2.82-6.34c.39-1.51.66-3.53-.54-4.77-1.77-1.83-4.47-.65-6.22.53a25.93,25.93,0,0,0-5,4.73c-1.65,1.92-3.18,3.95-4.7,6a32.26,32.26,0,0,0-2.68,4.28,31.33,31.33,0,0,0,.2-10.14,36,36,0,0,0-1.86-7.08A19.29,19.29,0,0,0,33.15,2,4.37,4.37,0,0,0,27.92.35c-1.59.74-2.52,2.47-3.11,4a22.77,22.77,0,0,0-1.15,6.23,47.84,47.84,0,0,0,.16,7.66c.13,1.71.24,3.43.48,5.13-.34-.48-.68-.94-1-1.4a37.93,37.93,0,0,0-7.88-7.77A22.61,22.61,0,0,0,11.75,12a6.78,6.78,0,0,0-4.45-.75,6,6,0,0,0-3.63,3.29,12.13,12.13,0,0,0-1.17,5,11.39,11.39,0,0,0,.85,4.93,9.13,9.13,0,0,0,1.3,2.16,9.77,9.77,0,0,0-1.44.17A5.49,5.49,0,0,0,.69,27.9a2,2,0,0,0-.38,2.54A5.14,5.14,0,0,0,2.07,32C3.82,33.07,5.57,34.16,7.36,35.2Zm26.05,7.85a1.07,1.07,0,0,0,.21.69c-.07.64-.07,1.3-.19,1.94a12.13,12.13,0,0,1-.84,3,5.23,5.23,0,0,1-1.74,1.82,8.76,8.76,0,0,1-4.37-4.55A14.39,14.39,0,0,1,25.65,43a6.7,6.7,0,0,1-.14-1.3H26a15,15,0,0,0,3.12-.56,6.08,6.08,0,0,1,1.15-.1c.38.23.78.46,1.18.66a21,21,0,0,0,2,.94A1.13,1.13,0,0,0,33.41,43.05ZM54,41.33a1.12,1.12,0,0,1,.22,1.27s-.08.14-.15.24a1.06,1.06,0,0,0-.14.15l-.07,0a.28.28,0,0,1-.09.05l-.26.13-.35.1-.42.08a.75.75,0,0,1-.2,0l-.45,0a26.81,26.81,0,0,1-3.47-.33c-2.13-.26-4.24-.71-6.35-1.08s-4.41-.72-6.56-1.25a14,14,0,0,1-3.28-1.31l.55-.14a1.22,1.22,0,0,0,.39.21A1.26,1.26,0,0,0,34.8,39a40.54,40.54,0,0,1,11.64-.23A15.91,15.91,0,0,1,52.19,40,6.64,6.64,0,0,1,54,41.33ZM28.24,34.16l0,0c0-.09.15-.1.09-.06l.14-.07.29-.08.35-.06.24,0a9.78,9.78,0,0,1,1.62.09h0l.18,0,.3.07c.19.05.38.1.57.17a4.62,4.62,0,0,1,1.12.5l.1.06.13.08.38.27.18.17.21.24a.88.88,0,0,0,.1.18.52.52,0,0,0,.05.19.43.43,0,0,0,0,.16c0,.07-.06.24-.08.29s-.06.08-.08.16l-.25.13-.06,0q-1.63.33-3.24.78a1.56,1.56,0,0,0-.26.11,13.7,13.7,0,0,1-1-1.14,5.12,5.12,0,0,1-1.13-2c0,.09,0-.14,0-.21s0,0,0,0h0Zm8.46.22c.06-.12.12-.24.19-.36a.78.78,0,0,0,0,.16A1.63,1.63,0,0,0,36.7,34.38Zm24.25-7c3,.38,6.66.89,8.36,3.7A4.78,4.78,0,0,1,70,33.24a3.38,3.38,0,0,1-.28,2.11c-.81,1.2-2.57,1.73-3.86,2.31a17.74,17.74,0,0,1-5.37,1.57,18.29,18.29,0,0,1-3.05.16c-.42,0-.83-.06-1.26,0h-.71a.7.7,0,0,1-.19-.06l-.14,0a4.31,4.31,0,0,0-.46-.39,11.48,11.48,0,0,0-5.5-2.18,48.88,48.88,0,0,0-6.28-.59c-1,0-2.06,0-3.1,0,.43-.15.85-.3,1.28-.43a31.48,31.48,0,0,1,4.29-1c3-.52,6.12-.64,9.13-1.25.53-.1.45-1-.1-1-3.07.33-6.17.5-9.21,1a33.09,33.09,0,0,0-4.4,1c-.64.2-1.28.43-1.92.67h0c3.34-2.7,7-5.42,11.07-6.88A23.52,23.52,0,0,1,61,27.36ZM40.5,24a29.51,29.51,0,0,1,2.25-3.22C44.14,19,45.51,17.16,47,15.44a20.23,20.23,0,0,1,4.6-4.16,4.11,4.11,0,0,1,2.27-.82,1.12,1.12,0,0,1,.52.24h0a0,0,0,0,0,0,0c0,.06,0,0,0,0a1.5,1.5,0,0,1,.15.56,6,6,0,0,1-.06,1.12s0,.05,0,.08,0,.13,0,.2-.06.29-.1.43a17.32,17.32,0,0,1-.92,2.62A25,25,0,0,1,50,21.58a39.63,39.63,0,0,1-4.72,4.8C43.54,28,41.73,29.53,40,31.15l-.48.44c-.75.57-1.48,1.15-2.21,1.73.53-.9,1.11-1.77,1.69-2.64.9-1.33,1.8-2.66,2.82-3.9s2.12-2.43,3.23-3.6a24.85,24.85,0,0,0,3.15-3.5c.3-.46-.38-1.05-.76-.62-1.06,1.18-2.26,2.24-3.35,3.39s-2.2,2.38-3.24,3.63S38.88,28.69,38,30c-.79,1.18-1.56,2.36-2.24,3.61l-.21-.21a66.58,66.58,0,0,0,3.13-5.91C39.23,26.36,39.83,25.18,40.5,24Zm-13.67,0c-.45-2.48-.56-5-.76-7.54a36.82,36.82,0,0,1,.12-7.12,16.61,16.61,0,0,1,1.13-4.82l.1-.21.12-.22c.09-.16.18-.32.28-.48l.31-.45.05,0A1.07,1.07,0,0,1,28.32,3a3.17,3.17,0,0,1,.39-.34L29,2.52l.06,0h0l.21-.06.15,0h.16a2.21,2.21,0,0,1,1.55.88,8.48,8.48,0,0,1,1.36,2.16,31.07,31.07,0,0,1,1.94,5.23,31.38,31.38,0,0,1,1.18,6.43A35.1,35.1,0,0,1,33.21,31.2a1.08,1.08,0,0,0,.1.91,10.1,10.1,0,0,0-1-.33l-.41-.09c0-2.66-.1-5.29-.29-8-.1-1.38-.14-2.76-.23-4.14a18.71,18.71,0,0,0-.73-3.78.49.49,0,0,0-1,.23c.19,1.31.43,2.59.51,3.92s.13,2.64.22,4c.18,2.53.28,5,.28,7.56a8.44,8.44,0,0,0-1.74,0,1.18,1.18,0,0,0-.2-.52c0-.08,0-.15,0-.22a3,3,0,0,0-.07-.32,6,6,0,0,0-.28-.85c-.23-.59-.46-1.16-.65-1.76A32.12,32.12,0,0,1,26.83,24.05ZM5.27,22.77A10.53,10.53,0,0,1,5,18.2a7.05,7.05,0,0,1,1.45-3.6,4,4,0,0,1,.7-.66,1.67,1.67,0,0,1,.63-.33,2.73,2.73,0,0,1,1.36,0A9.85,9.85,0,0,1,12.29,15a31.65,31.65,0,0,1,3.53,2.55,38,38,0,0,1,6.49,7.1,23.06,23.06,0,0,1,2.48,4.24A9.84,9.84,0,0,1,25.51,31c0,.13,0,.26.06.39-.83-1.11-1.66-2.21-2.52-3.29-1.27-1.59-2.74-3-3.56-4.91a.49.49,0,0,0-.92.22A4.72,4.72,0,0,0,19.76,26c.7.89,1.45,1.73,2.16,2.6,1.3,1.62,2.54,3.28,3.77,5a1.34,1.34,0,0,0,.16.45A3,3,0,0,0,26,35.2a.25.25,0,0,1,0,.07c-.48-.3-1-.6-1.45-.89-3.82-2.29-7.58-4.87-11.78-6.44a20.71,20.71,0,0,0-4.35-1.1,1,1,0,0,0-.44-.5A6.12,6.12,0,0,1,5.27,22.77ZM2.92,29.38A7.09,7.09,0,0,1,5.52,29a19.71,19.71,0,0,1,3,.23c4.39.76,8.15,3.2,11.9,5.46,1.9,1.15,3.82,2.26,5.69,3.45.45.29.89.59,1.33.89a10.63,10.63,0,0,1-2.32.18,1,1,0,0,0-1-.06c-.72-.06-1.44-.17-2.15-.3A27.77,27.77,0,0,1,15.68,37a59.35,59.35,0,0,1-5.78-3.1C8,32.8,6.1,31.74,4.29,30.54c-.49-.32-1.18-.72-1.62-1.06Z"/></g></g></svg>