<svg xmlns="http://www.w3.org/2000/svg" viewBox="0 0 395.98 105.69"><defs><style>.cls-1{fill:#9b8076;}</style></defs><title>Asset 1</title><g id="Layer_2" data-name="Layer 2"><g id="Layer_1-2" data-name="Layer 1"><path class="cls-1" d="M159.05,4.11l-6.58,1.31q-4.38.87-11.57,4.66A125.85,125.85,0,0,0,123.48,21.8a210.13,210.13,0,0,0-22.59,20.9Q88.53,55.68,77,70.27a172.61,172.61,0,0,0-19.51,30.59,8.35,8.35,0,0,1-5.36,4.64c-2.28.58-3.36-.17-3.24-2.27q1.93-49.86,29.74-85.49,8.31-10.41.55-13T56.91,6.48Q42.42,10.83,26,21.62A75.68,75.68,0,0,0,.62,48.82c-.68,1.26-.8,1-.36-.72A35.34,35.34,0,0,1,2.84,37.4a28.22,28.22,0,0,1,5.6-8.08Q17,20.71,32.1,13.44A131,131,0,0,1,61.18,3.17q14-3,21.75-.36t.45,13.54A248.92,248.92,0,0,0,61.6,56q-10,22.55-10.15,44.89c0,.33.22.54.67.64s.85-.21,1.21-.94A174.88,174.88,0,0,1,71.6,73Q82.9,58.7,96.71,43.61a231.22,231.22,0,0,1,30.47-27.77Q143.84,3.15,156.93.05c1-.24,1.87.34,2.48,1.73S159.89,4,159.05,4.11Z"/><path class="cls-1" d="M103.19,58.39c.57-.08.94.34,1.12,1.25S104.08,61,103.07,61c-1.29.08-2.75.93-4.36,2.54a23.59,23.59,0,0,0-4.46,6.85,13.72,13.72,0,0,0-1.36,8.15q.67,3.72,9.21-2.39a88.46,88.46,0,0,0,10.3-8.55q5.26-5,9.39-8.42c.4-.44.68-.48.82-.12a1.16,1.16,0,0,1-.4,1.21Q120,62.22,114.82,67t-9.63,8.81a62.33,62.33,0,0,1-9.78,7.27q-5.25,3.15-6.7-3.94a16.67,16.67,0,0,1,3.18-10.69,31.58,31.58,0,0,1,7.3-7.48q.36-.3,0-.3a22.34,22.34,0,0,1-2.79.24c-1.13,0-1.77-.59-1.93-1.88q-.18-3.57,6.48-6.79a38.19,38.19,0,0,1,14.66-3.63c.44,0,.52.43.24,1.3s-.79,1.29-1.51,1.25a31.64,31.64,0,0,0-11.85,2.08c-4.18,1.52-6,3-5.48,4.43S99.6,59.32,103.19,58.39Zm19.69-12q.66-.12.27.54a1.57,1.57,0,0,1-1.18.79A4.49,4.49,0,0,1,117.28,46q-1.61-2.19-2.34-3.09a1.11,1.11,0,0,0-1-.31,17.27,17.27,0,0,0-6.27,2.67,37.49,37.49,0,0,1-5.36,3c-.81.4-1.18,0-1.12-1.15A2.6,2.6,0,0,1,103,44.76q3.51-1.26,8.3-3.3t5.69-.82a27.87,27.87,0,0,0,3.24,3.82C121.58,45.88,122.47,46.52,122.88,46.4Zm.6-6.48c.89.48,1.1.88.61,1.18a1.38,1.38,0,0,1-1.63-.21,49.8,49.8,0,0,0-4.52-2.37,20.2,20.2,0,0,1-5.12-3.21q-1.21-1.22-.33-3.33t2.64.18Q120.52,38.52,123.48,39.92Z"/><path class="cls-1" d="M133.54,84.14c-.73.81-1.42.69-2.09-.36a2.83,2.83,0,0,1-.15-3.09q2.25-3.63,7.75-11.3a121.29,121.29,0,0,0,8.79-13.84c.24-.53.79-.28,1.63.75a2.16,2.16,0,0,1-.12,3.12,78.9,78.9,0,0,0-6.48,8.4,86.46,86.46,0,0,0-5.27,8.39c-.73,1.37-.56,1.57.49.6.76-.68,2.29-2.08,4.57-4.18s4.71-4.33,7.3-6.69l7.18-6.58q3.3-3,4.27-3.81,1.28-1.09,3,.75t.42,2.82q-2,1.52-6.93,9.09t-4,7.69a16.53,16.53,0,0,0,2.6-2q2.49-2.09,5.3-4.6c1.88-1.68,3.95-3.47,6.21-5.39s4.08-3.37,5.45-4.33,2.37-1.07,3-.31c1.09,1.7,1.26,2.71.49,3-.45.2-1.23,1.27-2.36,3.21A23.64,23.64,0,0,0,172,71.36c-.52,2-.62,3.39-.27,4.24s1.39.62,3.15-.7a92.34,92.34,0,0,0,8.18-7.42q5.53-5.45,7.18-7.24c1.09-1.19,1.65-1.5,1.69-.94a2.52,2.52,0,0,1-1,1.88c-3.75,3.56-6.73,6.48-8.93,8.79s-4.66,4.7-7.36,7.2q-3.59,3.47-5.79,2.58c-1.47-.58-2-2.25-1.42-5a21.57,21.57,0,0,1,1.88-5.69A34.35,34.35,0,0,1,172.86,63c.4-.53.53-.86.39-1s-.49,0-1.06.51a86.4,86.4,0,0,0-9.05,7.7,92.69,92.69,0,0,0-10.21,11.51c-.57.73-1.41.53-2.52-.58a2.79,2.79,0,0,1-.75-3.48q1.46-3,4.57-8.39t4.21-7.54c.24-.45.25-.7,0-.76a.78.78,0,0,0-.7.21Q152.32,66,145.66,71.87A127.24,127.24,0,0,0,133.54,84.14Z"/><path class="cls-1" d="M205.2,83.05c-.2.61-1.1.3-2.69-.91s-.66-4.32,2.81-9.33q4.67-6.72,12.39-18.33t15.36-22.56c.2-.33.12-.47-.24-.43a118.3,118.3,0,0,0-12.48.85c-1.34.16-2.09-.3-2.28-1.39s.34-1.56,1.55-1.4a31.67,31.67,0,0,0,5.36.37c2.65,0,5.62,0,8.94,0a.87.87,0,0,0,.84-.43Q250.39,7.38,251.12,6.72c.49-.57,1-.09,1.55,1.42a3.81,3.81,0,0,1-.34,3.79L238,29.37c-.29.37-.19.55.3.55l17.45-.24c.93,0,1.23.45.91,1.36a1.51,1.51,0,0,1-1.94,1.06,64.17,64.17,0,0,0-7.18-.55q-5.06-.18-10.76-.18a1.11,1.11,0,0,0-.6.37q-8.55,10.9-17.54,24.56A119.3,119.3,0,0,0,205.2,83.05Z"/><path class="cls-1" d="M269.84,53.67c1.13,1.65,1.29,2.64.49,3q-.68.3-2.88,4.08a19.21,19.21,0,0,0-2.64,7.43q-.42,3.63,3.4,1.39a70.15,70.15,0,0,0,10.3-8.27q5.44-5.18,7.87-7.91c.49-.52.75-.46.79.19a2.2,2.2,0,0,1-.91,1.81q-4.67,4.85-9.66,9.39a76.15,76.15,0,0,1-8.64,7q-5,3.27-6.39,1.88t-.85-4.67a19.31,19.31,0,0,1,2.09-6.18,26.91,26.91,0,0,1,3-4.6c.49-.69.55-1,.19-.94a3.22,3.22,0,0,0-1.16.46q-3.69,2.41-11,8.29a116.41,116.41,0,0,0-12.3,11.21c-.61.85-1.27.73-2-.36a2.72,2.72,0,0,1-.24-3.09q2.24-3.75,7.75-11.39a116.38,116.38,0,0,0,8.79-13.87c.24-.45,1-.36,2.27.27s.66,2.29-1.85,5a62.72,62.72,0,0,0-6.51,8.45q-3.67,5.48-5.3,8.51c-.2.48-.21.74,0,.76s.43-.15.76-.52q1.63-1.46,9.75-7.81t11.39-9a9.24,9.24,0,0,1,1.63-1A1.6,1.6,0,0,1,269.84,53.67Z"/><path class="cls-1" d="M279.41,70.51c-.28.65-.38,1-.3,1s.4-.12.85-.61q3.45-3.69,11.78-11.3t11.6-9c1.58-.57,2.55-.2,2.91,1.09A3.05,3.05,0,0,1,305.4,55a13.31,13.31,0,0,0-2.57,3.88,22.74,22.74,0,0,0-1.91,5.42,13.56,13.56,0,0,0-.33,4.27c.14,1.09.84,1.19,2.09.3a90.83,90.83,0,0,0,8.57-7.08q4.15-3.88,7.78-7c.65-.61,1-.66,1-.15s-.34,1.08-1.15,1.72q-5.32,4.55-9,8.12t-9,7.88c-2.91,1.85-4.63,2.23-5.18,1.12s-.53-3.17,0-6.18a37.88,37.88,0,0,1,3.82-10.21c.32-.77-.06-.83-1.15-.18Q293.1,60,285.8,67.45t-8.69,11.36c-.32.93-1,.5-2-1.27s-1.45-3-1.33-3.7a19.63,19.63,0,0,1,2.12-5.21A113.87,113.87,0,0,1,282,58.57q4.17-6.3,15.57-22t16.72-22.47q5.32-6.76,7-9.3a31.68,31.68,0,0,1,2.42-3.33c.52-.57,1.13,0,1.82,1.69s.79,2.81.33,3.33a32,32,0,0,1-2.48,2.4c-1.2,1.07-2.68,2.54-4.46,4.42s-4.68,5.3-8.72,10.27-8,10.1-11.84,15.39-7.52,10.68-11,16.17A96.34,96.34,0,0,0,279.41,70.51Z"/><path class="cls-1" d="M338.48,51.55a.72.72,0,0,0,.36,1,3.17,3.17,0,0,1,.85.78c.2.49,0,1.14-.72,1.94a47.41,47.41,0,0,0-7.33,12.48c-1.34,3.72-1.09,6.3.72,7.76q2.43,2.65,11.72,2.36t17-1.06q7.72-.75,17.42-1.55t13.87.31q2.79.78,3.42,2.6c.43,1.21,0,1.64-1.24,1.27q-6.36-1.87-16.27-1.54t-17.17,1q-7.27.63-16,1t-12.7-1.33q-3.09-1.39-3.39-5.79a18.77,18.77,0,0,1,1.46-8.63c.52-1.29.34-1.5-.55-.61-.4.37-1.36,1.39-2.88,3.09s-3.15,3.46-4.9,5.27-3.41,3.39-4.94,4.7-2.53,1.78-3,1.42q-5.58-4.48-1.12-12.84a57.82,57.82,0,0,1,11.54-15q7.08-6.66,12.27-7.51T338.48,51.55ZM314.13,74.39q.36,1.58,4.6-1.91a82.18,82.18,0,0,0,8.88-8.64,75.66,75.66,0,0,0,7.9-10.35q3.27-5.22,1.7-7.21c-1.45-1.74-3.53-1.47-6.21.81A48.49,48.49,0,0,0,323.06,56a80.74,80.74,0,0,0-6.63,11.09C314.61,70.83,313.84,73.26,314.13,74.39Z"/><path class="cls-1" d="M186.68,63.49a33.65,33.65,0,0,1,4.22-6.66,34.6,34.6,0,0,1,6.35-6.28q5.4-4.08,9.44-3.82c2.68.17,4.18,1.44,4.5,3.79a16.3,16.3,0,0,1-1.23,8,42.85,42.85,0,0,1-5.45,9.6,31.15,31.15,0,0,1-8.14,8Q192,79,188.31,77.57t-3.72-5.71A17.32,17.32,0,0,1,186.68,63.49Zm2,17.12c.66.15,1,.5.95,1a3.41,3.41,0,0,1-.86,1.56,3.55,3.55,0,0,1-2.89,1.52c-1.14-.16-1.34-.84-.62-2C186.25,81.08,187.39,80.38,188.72,80.61Zm12.75-30.92q-3.47,2-8.56,8.85t-5.71,12c-.44,3.64.44,5.61,2.66,5.93s4.78-.7,7.72-3.06a35.73,35.73,0,0,0,8.13-9.79q3.73-6.26,4.06-10.33t-2.25-4.84C205.79,48,203.78,48.37,201.47,49.69Zm13.75-3.17q.57-.09.24.45a1.35,1.35,0,0,1-1,.64,3.6,3.6,0,0,1-3.65-1.38c-.86-1.13-1.47-1.92-1.85-2.37a.8.8,0,0,0-.71-.23,13.14,13.14,0,0,0-4.93,2.08A25.55,25.55,0,0,1,199.2,48c-.67.31-1,0-.93-.88a2,2,0,0,1,1.35-1.87q2.81-1,6.54-2.64c2.5-1.06,4-1.25,4.41-.59a20.86,20.86,0,0,0,2.54,3C214.2,46.11,214.9,46.61,215.22,46.52Z"/><path class="cls-1" d="M333.9,26.33q-2.46-1.56-.58-2.1a3.87,3.87,0,0,1,3.7,1q2.66,2.25,6.7,5.93t8,7c.57.47.33,1-.7,1.66s-1.82.61-2.36-.06a16.65,16.65,0,0,0-4.76-6.06A105.31,105.31,0,0,0,333.9,26.33Z"/></g></g></svg>